<?xml version="1.0" encoding="UTF-8" standalone="no"?>
<!-- Created with Inkscape (http://www.inkscape.org/) -->

<svg
   xmlns:dc="http://purl.org/dc/elements/1.1/"
   xmlns:cc="http://creativecommons.org/ns#"
   xmlns:rdf="http://www.w3.org/1999/02/22-rdf-syntax-ns#"
   xmlns:svg="http://www.w3.org/2000/svg"
   xmlns="http://www.w3.org/2000/svg"
   xmlns:sodipodi="http://sodipodi.sourceforge.net/DTD/sodipodi-0.dtd"
   xmlns:inkscape="http://www.inkscape.org/namespaces/inkscape"
   width="134.66559"
   height="118.43694"
   id="svg3137"
   version="1.1"
   inkscape:version="0.48.4 r9939"
   sodipodi:docname="nurkivi.svg">
  <defs
     id="defs3139" />
  <sodipodi:namedview
     id="base"
     pagecolor="#ffffff"
     bordercolor="#666666"
     borderopacity="1.0"
     inkscape:pageopacity="0.0"
     inkscape:pageshadow="2"
     inkscape:zoom="0.49497475"
     inkscape:cx="280.59974"
     inkscape:cy="163.65069"
     inkscape:document-units="px"
     inkscape:current-layer="layer1"
     showgrid="false"
     inkscape:window-width="1661"
     inkscape:window-height="1028"
     inkscape:window-x="2171"
     inkscape:window-y="-8"
     inkscape:window-maximized="1"
     fit-margin-top="0"
     fit-margin-left="0"
     fit-margin-right="0"
     fit-margin-bottom="0" />
  <metadata
     id="metadata3142">
    <rdf:RDF>
      <cc:Work
         rdf:about="">
        <dc:format>image/svg+xml</dc:format>
        <dc:type
           rdf:resource="http://purl.org/dc/dcmitype/StillImage" />
        <dc:title />
      </cc:Work>
    </rdf:RDF>
  </metadata>
  <g
     inkscape:label="Ebene 1"
     inkscape:groupmode="layer"
     id="layer1"
     transform="translate(-281.23864,-396.00085)">
    <path
       inkscape:connector-curvature="0"
       id="path9"
       d="m 293.25973,410.92167 c -0.0406,0.0603 -0.0798,0.11902 -0.12042,0.17969 -20.56916,30.69568 -11.22827,71.74707 20.87701,91.67077 32.10523,19.92359 74.81708,11.17481 95.38623,-19.52099 0.0405,-0.0603 0.0802,-0.11902 0.12042,-0.17969 l -116.26318,-72.14978 -6e-5,0"
       style="fill:#6f440f;stroke:#3d2302;stroke-width:1.96315002" />
    <path
       inkscape:connector-curvature="0"
       id="path11"
       d="m 411.22164,480.22154 c -11.17169,16.67187 -46.19973,14.0697 -78.23727,-5.81202 -32.03757,-19.88159 -48.9527,-49.51397 -37.78101,-66.18579 11.1717,-16.67175 46.19974,-14.06964 78.23731,5.81202 32.03754,19.88171 48.95267,49.51403 37.78097,66.18579 l 0,0"
       style="fill:#5c3807;stroke:#3d2302;stroke-width:2.48031497" />
    <path
       inkscape:connector-curvature="0"
       id="path13"
       d="m 406.82162,477.49107 c -9.39481,14.02008 -41.01245,10.49078 -70.62,-7.88287 -29.60751,-18.3736 -45.99316,-44.63385 -36.59835,-58.65394 9.39477,-14.02002 41.01242,-10.49072 70.61993,7.88288 29.60754,18.37366 45.99319,44.63391 36.59842,58.65393 l 0,0"
       style="fill:#79b61b;stroke:#384f0e;stroke-width:0.646119" />
    <path
       inkscape:connector-curvature="0"
       id="path15"
       d="m 377.37597,459.21778 c -4.23456,6.31934 -18.48569,4.72855 -31.83079,-3.55307 -13.34511,-8.28161 -20.73068,-20.11798 -16.49612,-26.43731 4.23454,-6.31928 18.48568,-4.72852 31.83079,3.5531 13.34511,8.28161 20.73066,20.11801 16.49612,26.43728 l 0,0"
       style="fill:#536f29;stroke:none" />
    <path
       inkscape:connector-curvature="0"
       id="path17"
       d="m 364.91828,451.4867 c -2.05137,3.06131 -8.95513,2.2907 -15.41999,-1.72122 -6.46485,-4.01191 -10.04268,-9.74588 -7.99131,-12.80719 2.05137,-3.06131 8.95513,-2.29068 15.41999,1.72124 6.46485,4.01192 10.04268,9.7459 7.99131,12.80717 l 0,0"
       style="fill:#f4f090;stroke:none" />
    <g
       id="g5587"
       transform="translate(240.35287,354.74943)">
      <path
         inkscape:connector-curvature="0"
         id="path20"
         d="m 149.34131,111.94358 c -0.75943,1.13329 -2.62335,1.27735 -4.16319,0.32175 -1.53986,-0.95558 -2.17254,-2.64896 -1.41312,-3.78225 0.75941,-1.1333 2.62335,-1.27735 4.16319,-0.32175 1.53986,0.95559 2.17253,2.64896 1.41312,3.78225 l 0,0"
         style="fill:#000000;stroke:none" />
      <path
         inkscape:connector-curvature="0"
         id="path22"
         d="m 137.21619,118.10973 c -1.06607,0.7956 -2.62253,0.0784 -3.47644,-1.60203 -0.85392,-1.68039 -0.68193,-3.68758 0.38415,-4.48319 1.06607,-0.79561 2.62253,-0.0783 3.47644,1.60205 0.85391,1.68039 0.68192,3.68757 -0.38415,4.48317 l 0,0"
         style="fill:#000000;stroke:none" />
      <path
         inkscape:connector-curvature="0"
         id="path24"
         d="m 121.72317,111.03256 c 1.06576,-0.79622 2.6229,-0.0802 3.47796,1.59938 0.85505,1.67953 0.68424,3.68652 -0.38152,4.48274 -1.06577,0.79622 -2.62289,0.0802 -3.47795,-1.59938 -0.85506,-1.67953 -0.68425,-3.68652 0.38151,-4.48274 l 0,0"
         style="fill:#000000;stroke:none" />
      <path
         inkscape:connector-curvature="0"
         id="path26"
         d="m 149.39957,99.026245 c -0.24788,1.262565 -2.04616,2.341575 -4.01657,2.410055 -1.9704,0.0685 -3.36678,-0.89953 -3.1189,-2.162092 0.24789,-1.262573 2.04617,-2.341583 4.01657,-2.410057 1.97041,-0.06848 3.36679,0.899521 3.1189,2.162094 l 0,0"
         style="fill:#000000;stroke:none" />
      <path
         inkscape:connector-curvature="0"
         id="path28"
         d="m 109.51764,112.6865 c -1.11158,-0.11465 -1.47586,-1.95414 -0.81364,-4.10863 0.66221,-2.15448 2.10015,-3.8081 3.21173,-3.69344 1.11158,0.11465 1.47585,1.95415 0.81363,4.10863 -0.66221,2.15448 -2.10015,3.80809 -3.21172,3.69344 l 0,0"
         style="fill:#000000;stroke:none" />
      <path
         inkscape:connector-curvature="0"
         id="path30"
         d="m 101.00146,99.237465 c 0.74201,0.759201 0.0752,2.776355 -1.48936,4.505435 -1.56456,1.72908 -3.434395,2.51532 -4.176391,1.75612 -0.742005,-0.7592 -0.0752,-2.77635 1.489364,-4.50543 1.56456,-1.729087 3.434387,-2.515334 4.176387,-1.756125 l 0,0"
         style="fill:#000000;stroke:none" />
      <path
         inkscape:connector-curvature="0"
         id="path32"
         d="m 89.843002,91.487862 c -0.200058,1.259826 -1.972442,2.409126 -3.958725,2.567031 -1.986282,0.157906 -3.434311,-0.735382 -3.234253,-1.995208 0.200058,-1.259835 1.972443,-2.409134 3.958733,-2.56704 1.98629,-0.157905 3.434311,0.735382 3.234245,1.995217 l 0,0"
         style="fill:#000000;stroke:none" />
      <path
         inkscape:connector-curvature="0"
         id="path34"
         d="m 81.382507,81.355347 c -0.640365,1.194442 -2.530418,1.592018 -4.221565,0.888015 -1.691139,-0.70401 -2.542961,-2.243003 -1.902603,-3.437446 0.640358,-1.194451 2.530418,-1.592026 4.221558,-0.888016 1.691139,0.704002 2.542968,2.243004 1.90261,3.437447 l 0,0"
         style="fill:#000000;stroke:none" />
      <path
         inkscape:connector-curvature="0"
         id="path36"
         d="m 82.22979,69.414528 c -0.759415,1.133293 -2.623337,1.277351 -4.163193,0.321754 -1.539848,-0.955589 -2.172524,-2.648964 -1.413109,-3.782257 0.759422,-1.133293 2.623345,-1.277343 4.163201,-0.321747 1.539848,0.95559 2.172523,2.648957 1.413101,3.78225 l 0,0"
         style="fill:#000000;stroke:none" />
      <path
         inkscape:connector-curvature="0"
         id="path38"
         d="m 143.45348,87.331535 c 0.0379,1.215355 -1.56443,2.678719 -3.579,3.268525 -2.01457,0.589805 -3.67847,0.08271 -3.71643,-1.132645 -0.0379,-1.215347 1.56442,-2.678711 3.57899,-3.268517 2.01458,-0.589805 3.67849,-0.08271 3.71644,1.132637 l 0,0"
         style="fill:#000000;stroke:none" />
      <path
         inkscape:connector-curvature="0"
         id="path40"
         d="m 135.04391,74.849174 c 0.68689,0.81736 -0.0831,2.817132 -1.71978,4.466607 -1.63672,1.649475 -3.52036,2.324035 -4.20725,1.506668 -0.68689,-0.81736 0.0831,-2.817124 1.71979,-4.466599 1.6367,-1.649475 3.52035,-2.324035 4.20724,-1.506676 l 0,0"
         style="fill:#000000;stroke:none" />
      <path
         inkscape:connector-curvature="0"
         id="path42"
         d="m 118.33418,74.125793 c -1.05925,-0.259742 -1.20578,-2.186622 -0.32728,-4.30381 0.87849,-2.11718 2.44933,-3.622932 3.50858,-3.363182 1.05924,0.259743 1.20576,2.186623 0.32727,4.303803 -0.87849,2.117187 -2.44933,3.62294 -3.50857,3.363189 l 0,0"
         style="fill:#000000;stroke:none" />
      <path
         inkscape:connector-curvature="0"
         id="path44"
         d="m 108.13924,69.572571 c -1.14885,0.563743 -2.43476,-0.548691 -2.87215,-2.484711 -0.43739,-1.93602 0.13937,-3.962479 1.28822,-4.52623 1.14887,-0.563751 2.43478,0.548699 2.87217,2.484711 0.43739,1.93602 -0.13937,3.962479 -1.28824,4.52623 l 0,0"
         style="fill:#000000;stroke:none" />
      <path
         inkscape:connector-curvature="0"
         id="path46"
         d="m 95.049988,66.710312 c -0.98082,0.931702 -2.679016,0.502739 -3.793061,-0.95813 -1.114044,-1.460876 -1.222053,-3.400452 -0.241241,-4.332153 0.980804,-0.93171 2.679016,-0.502732 3.79306,0.958145 1.114045,1.460869 1.222046,3.400436 0.241242,4.332138 l 0,0"
         style="fill:#000000;stroke:none" />
    </g>
  </g>
</svg>
